<?xml version="1.0" encoding="UTF-8"?>
<svg id="Calque_2" data-name="Calque 2" xmlns="http://www.w3.org/2000/svg" viewBox="0 0 196.07 193.85">
  <defs>
    <style>
      .cls-1 {
        fill: #fff;
      }
    </style>
  </defs>
  <g id="Calque_1-2" data-name="Calque 1">
    <g>
      <path class="cls-1" d="m177.94,77.34l-.81-63.29h-.54s.79-.77.79-.77L164.37.02l-48.77,47.8-36.32-.08L32.56,0l-12.46,12.87h-.11s0,.11,0,.11l-.18.18.18.18.8,62.03L0,96.09l17.22,17.29,13.51-13.46,3.23,3.3-13.48,13.43,76.88,77.2,51.47-51.25.04-19.84,37.31-37.15-8.23-8.27Zm-16.61-48.33l.41,32.07-13.13-13.18h-6.53s19.25-18.88,19.25-18.88Zm-126.37-.36l18.64,19.05h-5s-4.77,4.74-4.77,4.74l7.19,7.22v4.64s-5.32,5.49-5.32,5.49l.02-8.92-5.15-5.17-5.2,5.18-.41-32.21Zm62.36,114.52l-46.64-46.84,12.8-12.75,70.11.15,11.66,11.71-47.93,47.73Z"/>
      <polygon class="cls-1" points="189.43 88.87 154.16 123.99 154 137.44 196.07 95.54 189.43 88.87"/>
    </g>
  </g>
</svg>