<?xml version="1.0" encoding="UTF-8"?>
<svg id="Calque_2" data-name="Calque 2" xmlns="http://www.w3.org/2000/svg" xmlns:xlink="http://www.w3.org/1999/xlink" viewBox="0 0 837.95 575.54">
  <defs>
    <style>
      .cls-1 {
        fill: url(#Dégradé_sans_nom_663);
        stroke: url(#Dégradé_sans_nom_346);
        stroke-miterlimit: 10;
        stroke-width: 5px;
      }
    </style>
    <linearGradient id="Dégradé_sans_nom_663" data-name="Dégradé sans nom 663" x1="2.5" y1="287.68" x2="835.45" y2="287.68" gradientUnits="userSpaceOnUse">
      <stop offset="0" stop-color="#080029"/>
      <stop offset="1" stop-color="#001a63"/>
    </linearGradient>
    <linearGradient id="Dégradé_sans_nom_346" data-name="Dégradé sans nom 346" x1="0" y1="287.77" x2="837.95" y2="287.77" gradientUnits="userSpaceOnUse">
      <stop offset="0" stop-color="#fff"/>
      <stop offset="1" stop-color="#d4a700"/>
    </linearGradient>
  </defs>
  <g id="Calque_2-2" data-name="Calque 2">
    <path class="cls-1" d="m828.23,224.61c-20.64,12.82-37.33,18.37-51.74,19.74l-27.57-3.74-28.38,6.22c-9.62-9.02-23.02-28.01-23.02-28.01-2.28.91-5.01,10.97-6.57,17.52-6.36-5.95-11.47-11.73-11.47-11.73-10.21,16-2.72,33.7,3.4,49.02,6.13,15.32-16.34,36.77-16.34,36.77-57.29-1.3-86.1,50.95-84.77,51.06l-185.87,36.77s-75.57,45.96-129.7,61.28c-15.94,4.51-37.39,5.83-59.71,5.44-.02-2.47-.02-5-.02-7.62V119.9c0-73.05,8.68-79.14,76.38-85.22V2.5H12.05v32.18c65.09,5.22,73.77,12.17,73.77,85.22v331.33c0,73.05-6.94,79.14-83.32,84.35v32.18h430.48c3.33-10.02,9.66-32.53,16.37-57.97l25.18,37.54,18.38,24.17,37.79,1.36-12.26-18.38-18.38-2.38-8.85-14.98,8.8-30.13c16.3-4.15,29.14-11.73,33.76-27.41l59.23-21.79,60.6-6.81,22.47,21.45-.34,40.51,21.45,49.36,58.89,1.36-2.72-3.95,8.51,1.23-16.68-20.43-27.91-4.77-7.49-22.13,4.83-71.82,24.45-44.26-4.09-70.47c22.02-9.12,37.17-20.34,39.83-35.4,19.24-7.29,38.03-19.23,56.51-34.38,6.05-10.7,5.87-21.57-3.06-32.68Z"/>
  </g>
</svg>